# xmcd CD database file
#
# Track frame offsets:
#	150
#	21708
#	45845
#	71175
#	90651
#	119184
#	142617
#	170936
#	196940
#	222781
#
# Disc length: 4067 seconds
#
# Revision: 8
# Processed by: cddbd v1.5.2PL0 Copyright (c) Steve Scherf et al.
# Submitted via: CDex 1.70beta2
#
DISCID=950fe10a
DTITLE=Front Line Assembly - Epitaph
DYEAR=2001
DGENRE=Industrial
TTITLE0=Haloed
TTITLE1=Dead Planet
TTITLE2=Backlash
TTITLE3=Epitaph
TTITLE4=Everything Must Perish
TTITLE5=Conscience
TTITLE6=Decoy
TTITLE7=Insolence
TTITLE8=Krank It Up
TTITLE9=Existance
EXTD=it's Industrial, not blues! YEAR: 2001
EXTT0=
EXTT1=
EXTT2=
EXTT3=
EXTT4=
EXTT5=
EXTT6=
EXTT7=
EXTT8=
EXTT9=
PLAYORDER=
